<svg width="384" height="220" viewBox="0 0 384 220" fill="none" xmlns="http://www.w3.org/2000/svg">
<rect width="384" height="220" fill="#EDF0F4" fill-opacity="0.5"/>
<rect x="16.5" y="16" width="126" height="24" rx="12" fill="white"/>
<path d="M29.5 31H28.5C28.2348 31 27.9804 30.8946 27.7929 30.7071C27.6054 30.5196 27.5 30.2652 27.5 30V27.5C27.5 27.2348 27.6054 26.9804 27.7929 26.7929C27.9804 26.6054 28.2348 26.5 28.5 26.5H36.5C36.7652 26.5 37.0196 26.6054 37.2071 26.7929C37.3946 26.9804 37.5 27.2348 37.5 27.5V30C37.5 30.2652 37.3946 30.5196 37.2071 30.7071C37.0196 30.8946 36.7652 31 36.5 31H35.5" stroke="#444444" stroke-linecap="round" stroke-linejoin="round"/>
<path d="M29.5 26.5V23.5C29.5 23.3674 29.5527 23.2402 29.6464 23.1464C29.7402 23.0527 29.8674 23 30 23H35C35.1326 23 35.2598 23.0527 35.3536 23.1464C35.4473 23.2402 35.5 23.3674 35.5 23.5V26.5" stroke="#444444" stroke-linecap="round" stroke-linejoin="round"/>
<path d="M35 29H30C29.7239 29 29.5 29.2239 29.5 29.5V32.5C29.5 32.7761 29.7239 33 30 33H35C35.2761 33 35.5 32.7761 35.5 32.5V29.5C35.5 29.2239 35.2761 29 35 29Z" stroke="#444444" stroke-linecap="round" stroke-linejoin="round"/>
<path d="M50.5703 25.4883H48.1445V33H47.1602V25.4883H44.7402V24.5977H50.5703V25.4883ZM56.7461 33H55.7852V29.543C55.7852 28.293 55.3203 27.668 54.3906 27.668C53.9219 27.668 53.5273 27.8496 53.207 28.2129C52.8867 28.5723 52.7266 29.0352 52.7266 29.6016V33H51.7656V24.1172H52.7266V27.9961H52.75C53.2109 27.2383 53.8672 26.8594 54.7188 26.8594C56.0703 26.8594 56.7461 27.6738 56.7461 29.3027V33ZM63.3848 30.2402H59.1484C59.1641 30.9082 59.3438 31.4238 59.6875 31.7871C60.0312 32.1504 60.5039 32.332 61.1055 32.332C61.7812 32.332 62.4023 32.1094 62.9688 31.6641V32.5664C62.4414 32.9492 61.7441 33.1406 60.877 33.1406C60.0293 33.1406 59.3633 32.8691 58.8789 32.3262C58.3945 31.7793 58.1523 31.0117 58.1523 30.0234C58.1523 29.0898 58.416 28.3301 58.9434 27.7441C59.4746 27.1543 60.1328 26.8594 60.918 26.8594C61.7031 26.8594 62.3105 27.1133 62.7402 27.6211C63.1699 28.1289 63.3848 28.834 63.3848 29.7363V30.2402ZM62.4004 29.4258C62.3965 28.8711 62.2617 28.4395 61.9961 28.1309C61.7344 27.8223 61.3691 27.668 60.9004 27.668C60.4473 27.668 60.0625 27.8301 59.7461 28.1543C59.4297 28.4785 59.2344 28.9023 59.1602 29.4258H62.4004ZM67.9727 27.9727C67.8047 27.8438 67.5625 27.7793 67.2461 27.7793C66.8359 27.7793 66.4922 27.9727 66.2148 28.3594C65.9414 28.7461 65.8047 29.2734 65.8047 29.9414V33H64.8438V27H65.8047V28.2363H65.8281C65.9648 27.8145 66.1738 27.4863 66.4551 27.252C66.7363 27.0137 67.0508 26.8945 67.3984 26.8945C67.6484 26.8945 67.8398 26.9219 67.9727 26.9766V27.9727ZM77.5117 33H76.5508V29.5547C76.5508 28.8906 76.4473 28.4102 76.2402 28.1133C76.0371 27.8164 75.6934 27.668 75.209 27.668C74.7988 27.668 74.4492 27.8555 74.1602 28.2305C73.875 28.6055 73.7324 29.0547 73.7324 29.5781V33H72.7715V29.4375C72.7715 28.2578 72.3164 27.668 71.4062 27.668C70.9844 27.668 70.6367 27.8457 70.3633 28.2012C70.0898 28.5527 69.9531 29.0117 69.9531 29.5781V33H68.9922V27H69.9531V27.9492H69.9766C70.4023 27.2227 71.0234 26.8594 71.8398 26.8594C72.25 26.8594 72.6074 26.9746 72.9121 27.2051C73.2168 27.4316 73.4258 27.7305 73.5391 28.1016C73.9844 27.2734 74.6484 26.8594 75.5312 26.8594C76.8516 26.8594 77.5117 27.6738 77.5117 29.3027V33ZM83.623 33H82.6621V32.0625H82.6387C82.2207 32.7812 81.6055 33.1406 80.793 33.1406C80.1953 33.1406 79.7266 32.9824 79.3867 32.666C79.0508 32.3496 78.8828 31.9297 78.8828 31.4062C78.8828 30.2852 79.543 29.6328 80.8633 29.4492L82.6621 29.1973C82.6621 28.1777 82.25 27.668 81.4258 27.668C80.7031 27.668 80.0508 27.9141 79.4688 28.4062V27.4219C80.0586 27.0469 80.7383 26.8594 81.5078 26.8594C82.918 26.8594 83.623 27.6055 83.623 29.0977V33ZM82.6621 29.9648L81.2148 30.1641C80.7695 30.2266 80.4336 30.3379 80.207 30.498C79.9805 30.6543 79.8672 30.9336 79.8672 31.3359C79.8672 31.6289 79.9707 31.8691 80.1777 32.0566C80.3887 32.2402 80.668 32.332 81.0156 32.332C81.4922 32.332 81.8848 32.166 82.1934 31.834C82.5059 31.498 82.6621 31.0742 82.6621 30.5625V29.9648ZM86.3945 33H85.4336V24.1172H86.3945V33ZM96.7305 25.4883H94.3047V33H93.3203V25.4883H90.9004V24.5977H96.7305V25.4883ZM100.012 27.9727C99.8438 27.8438 99.6016 27.7793 99.2852 27.7793C98.875 27.7793 98.5312 27.9727 98.2539 28.3594C97.9805 28.7461 97.8438 29.2734 97.8438 29.9414V33H96.8828V27H97.8438V28.2363H97.8672C98.0039 27.8145 98.2129 27.4863 98.4941 27.252C98.7754 27.0137 99.0898 26.8945 99.4375 26.8945C99.6875 26.8945 99.8789 26.9219 100.012 26.9766V27.9727ZM105.35 33H104.389V32.0625H104.365C103.947 32.7812 103.332 33.1406 102.52 33.1406C101.922 33.1406 101.453 32.9824 101.113 32.666C100.777 32.3496 100.609 31.9297 100.609 31.4062C100.609 30.2852 101.27 29.6328 102.59 29.4492L104.389 29.1973C104.389 28.1777 103.977 27.668 103.152 27.668C102.43 27.668 101.777 27.9141 101.195 28.4062V27.4219C101.785 27.0469 102.465 26.8594 103.234 26.8594C104.645 26.8594 105.35 27.6055 105.35 29.0977V33ZM104.389 29.9648L102.941 30.1641C102.496 30.2266 102.16 30.3379 101.934 30.498C101.707 30.6543 101.594 30.9336 101.594 31.3359C101.594 31.6289 101.697 31.8691 101.904 32.0566C102.115 32.2402 102.395 32.332 102.742 32.332C103.219 32.332 103.611 32.166 103.92 31.834C104.232 31.498 104.389 31.0742 104.389 30.5625V29.9648ZM112.141 33H111.18V29.5781C111.18 28.3047 110.715 27.668 109.785 27.668C109.305 27.668 108.906 27.8496 108.59 28.2129C108.277 28.5723 108.121 29.0273 108.121 29.5781V33H107.16V27H108.121V27.9961H108.145C108.598 27.2383 109.254 26.8594 110.113 26.8594C110.77 26.8594 111.271 27.0723 111.619 27.498C111.967 27.9199 112.141 28.5312 112.141 29.332V33ZM113.594 32.7832V31.752C114.117 32.1387 114.693 32.332 115.322 32.332C116.166 32.332 116.588 32.0508 116.588 31.4883C116.588 31.3281 116.551 31.1934 116.477 31.084C116.406 30.9707 116.309 30.8711 116.184 30.7852C116.062 30.6992 115.918 30.623 115.75 30.5566C115.586 30.4863 115.408 30.4141 115.217 30.3398C114.951 30.2344 114.717 30.1289 114.514 30.0234C114.314 29.9141 114.146 29.793 114.01 29.6602C113.877 29.5234 113.775 29.3691 113.705 29.1973C113.639 29.0254 113.605 28.8242 113.605 28.5938C113.605 28.3125 113.67 28.0645 113.799 27.8496C113.928 27.6309 114.1 27.4492 114.314 27.3047C114.529 27.1562 114.773 27.0449 115.047 26.9707C115.324 26.8965 115.609 26.8594 115.902 26.8594C116.422 26.8594 116.887 26.9492 117.297 27.1289V28.1016C116.855 27.8125 116.348 27.668 115.773 27.668C115.594 27.668 115.432 27.6895 115.287 27.7324C115.143 27.7715 115.018 27.8281 114.912 27.9023C114.811 27.9766 114.73 28.0664 114.672 28.1719C114.617 28.2734 114.59 28.3867 114.59 28.5117C114.59 28.668 114.617 28.7988 114.672 28.9043C114.73 29.0098 114.814 29.1035 114.924 29.1855C115.033 29.2676 115.166 29.3418 115.322 29.4082C115.479 29.4746 115.656 29.5469 115.855 29.625C116.121 29.7266 116.359 29.832 116.57 29.9414C116.781 30.0469 116.961 30.168 117.109 30.3047C117.258 30.4375 117.371 30.5918 117.449 30.7676C117.531 30.9434 117.572 31.1523 117.572 31.3945C117.572 31.6914 117.506 31.9492 117.373 32.168C117.244 32.3867 117.07 32.5684 116.852 32.7129C116.633 32.8574 116.381 32.9648 116.096 33.0352C115.811 33.1055 115.512 33.1406 115.199 33.1406C114.582 33.1406 114.047 33.0215 113.594 32.7832ZM122.02 24.9609C121.832 24.8555 121.619 24.8027 121.381 24.8027C120.709 24.8027 120.373 25.2266 120.373 26.0742V27H121.779V27.8203H120.373V33H119.418V27.8203H118.393V27H119.418V26.0273C119.418 25.3984 119.6 24.9023 119.963 24.5391C120.326 24.1719 120.779 23.9883 121.322 23.9883C121.615 23.9883 121.848 24.0234 122.02 24.0938V24.9609ZM127.639 30.2402H123.402C123.418 30.9082 123.598 31.4238 123.941 31.7871C124.285 32.1504 124.758 32.332 125.359 32.332C126.035 32.332 126.656 32.1094 127.223 31.6641V32.5664C126.695 32.9492 125.998 33.1406 125.131 33.1406C124.283 33.1406 123.617 32.8691 123.133 32.3262C122.648 31.7793 122.406 31.0117 122.406 30.0234C122.406 29.0898 122.67 28.3301 123.197 27.7441C123.729 27.1543 124.387 26.8594 125.172 26.8594C125.957 26.8594 126.564 27.1133 126.994 27.6211C127.424 28.1289 127.639 28.834 127.639 29.7363V30.2402ZM126.654 29.4258C126.65 28.8711 126.516 28.4395 126.25 28.1309C125.988 27.8223 125.623 27.668 125.154 27.668C124.701 27.668 124.316 27.8301 124 28.1543C123.684 28.4785 123.488 28.9023 123.414 29.4258H126.654ZM132.227 27.9727C132.059 27.8438 131.816 27.7793 131.5 27.7793C131.09 27.7793 130.746 27.9727 130.469 28.3594C130.195 28.7461 130.059 29.2734 130.059 29.9414V33H129.098V27H130.059V28.2363H130.082C130.219 27.8145 130.428 27.4863 130.709 27.252C130.99 27.0137 131.305 26.8945 131.652 26.8945C131.902 26.8945 132.094 26.9219 132.227 26.9766V27.9727Z" fill="#444444"/>
<path fill-rule="evenodd" clip-rule="evenodd" d="M184.43 95.5323L200.185 116.538L203.968 109.602C207.803 102.571 217.549 101.686 222.589 107.911L247.415 138.578C248.083 139.404 248.343 140.428 248.221 141.405C248.24 141.559 248.25 141.716 248.25 141.875C248.25 143.946 246.571 145.625 244.5 145.625H139.5C138.112 145.625 136.837 144.858 136.187 143.631C135.536 142.404 135.617 140.919 136.397 139.77L166.121 95.9654C170.458 89.5747 179.797 89.3538 184.43 95.5323Z" fill="#ECEFF3"/>
<path d="M212.625 74.375C206.412 74.375 201.375 79.4118 201.375 85.625C201.375 91.8382 206.412 96.875 212.625 96.875C218.838 96.875 223.875 91.8382 223.875 85.625C223.875 79.4118 218.838 74.375 212.625 74.375Z" fill="#D9DCE0"/>
</svg>