<svg width="384" height="220" viewBox="0 0 384 220" fill="none" xmlns="http://www.w3.org/2000/svg">
<rect width="384" height="220" fill="#EDF0F4" fill-opacity="0.5"/>

<path fill-rule="evenodd" clip-rule="evenodd" d="M184.43 95.5323L200.185 116.538L203.968 109.602C207.803 102.571 217.549 101.686 222.589 107.911L247.415 138.578C248.083 139.404 248.343 140.428 248.221 141.405C248.24 141.559 248.25 141.716 248.25 141.875C248.25 143.946 246.571 145.625 244.5 145.625H139.5C138.112 145.625 136.837 144.858 136.187 143.631C135.536 142.404 135.617 140.919 136.397 139.77L166.121 95.9654C170.458 89.5747 179.797 89.3538 184.43 95.5323Z" fill="#ECEFF3"/>
<path d="M212.625 74.375C206.412 74.375 201.375 79.4118 201.375 85.625C201.375 91.8382 206.412 96.875 212.625 96.875C218.838 96.875 223.875 91.8382 223.875 85.625C223.875 79.4118 218.838 74.375 212.625 74.375Z" fill="#D9DCE0"/>
</svg>
