<svg width="33" height="28" viewBox="0 0 33 28" fill="none" xmlns="http://www.w3.org/2000/svg">
<path d="M31 8.53906V7.0625C31 5.37112 29.6289 4 27.9375 4H6.0625C4.37112 4 3 5.37112 3 7.0625V8.53906C3 8.61158 3.02881 8.68113 3.08009 8.73241C3.13137 8.78369 3.20092 8.8125 3.27344 8.8125H30.7266C30.7991 8.8125 30.8686 8.78369 30.9199 8.73241C30.9712 8.68113 31 8.61158 31 8.53906ZM3 10.8359V20.1875C3 21.8789 4.37112 23.25 6.0625 23.25H27.9375C29.6289 23.25 31 21.8789 31 20.1875V10.8359C31 10.7634 30.9712 10.6939 30.9199 10.6426C30.8686 10.5913 30.7991 10.5625 30.7266 10.5625H3.27344C3.20092 10.5625 3.13137 10.5913 3.08009 10.6426C3.02881 10.6939 3 10.7634 3 10.8359ZM10 18C10 18.4832 9.60822 18.875 9.125 18.875H8.25C7.76678 18.875 7.375 18.4832 7.375 18V17.125C7.375 16.6418 7.76678 16.25 8.25 16.25H9.125C9.60822 16.25 10 16.6418 10 17.125V18Z" fill="#444444"/>
</svg>
